<?xml version="1.0" encoding="UTF-8" standalone="no"?>
<svg width="379.4099426269531" height="80" xmlns:dc="http://purl.org/dc/elements/1.1/"
   xmlns:cc="http://creativecommons.org/ns#"
   xmlns:rdf="http://www.w3.org/1999/02/22-rdf-syntax-ns#"
   xmlns:svg="http://www.w3.org/2000/svg"
   xmlns="http://www.w3.org/2000/svg"
   xml:space="preserve"
   id="svg2"
   version="1.1"><metadata
     id="metadata8"><rdf:RDF><cc:Work
         rdf:about=""><dc:format>image/svg+xml</dc:format><dc:type
           rdf:resource="http://purl.org/dc/dcmitype/StillImage" /></cc:Work></rdf:RDF></metadata>
    <defs id="SvgjsDefs2409"></defs>
    <g id="SvgjsG2410" featurekey="root" fill="#ffffff"></g>
    <g id="SvgjsG2411" featurekey="symbol1" fill="#130f11" transform="matrix(0.1045615359031561,0,0,0.1045615359031561,7.550332190076476,1.2891575299719733)">
        <g>
            <path d="M756.572,590.618H690.3c2.133-4.684,3.331-9.885,3.331-15.367c0-1.615-0.114-3.203-0.314-4.764h63.256   c5.864,0,11.433-2.573,15.232-7.039c3.8-4.467,5.448-10.375,4.51-16.164c-0.38-2.34-9.53-57.957-29.895-114.527   c-29.661-82.401-67.886-124.182-113.611-124.182H43.428c-11.046,0-20,8.954-20,20s8.954,20,20,20h202.062v181.912H134.889v-90.956   c0-11.046-8.954-20-20-20s-20,8.954-20,20v90.956H43.428c-11.046,0-20,8.954-20,20s8.954,20,20,20h71.461h38.483   c-0.199,1.561-0.314,3.148-0.314,4.764c0,5.482,1.197,10.684,3.331,15.367H43.428c-11.046,0-20,8.954-20,20s8.954,20,20,20h713.145   c11.046,0,20-8.954,20-20S767.618,590.618,756.572,590.618z M622.698,590.618H525.19c2.133-4.684,3.331-9.885,3.331-15.367   c0-1.615-0.114-3.203-0.314-4.764h91.475c-0.2,1.561-0.314,3.148-0.314,4.764C619.367,580.733,620.565,585.935,622.698,590.618z    M457.589,590.618h-82.998c2.133-4.684,3.331-9.885,3.331-15.367c0-1.615-0.114-3.203-0.314-4.764h76.965   c-0.2,1.561-0.315,3.148-0.315,4.764C454.257,580.733,455.456,585.935,457.589,590.618z M586.689,530.487v-92.29h119.083   c0.955,2.506,1.905,5.044,2.846,7.647c11.452,31.713,19.255,63.811,23.702,84.643H586.689z M687.757,398.197H586.689v-49.622   h46.119C651.366,348.575,670.267,365.88,687.757,398.197z M546.689,530.487H436.089v-90.956c0-11.046-8.954-20-20-20   s-20,8.954-20,20v90.956h-110.6V348.575h261.2V530.487z M227.007,570.487h76.966c-0.2,1.561-0.314,3.148-0.314,4.764   c0,5.482,1.198,10.684,3.331,15.367H223.99c2.134-4.684,3.331-9.885,3.331-15.367C227.321,573.636,227.206,572.048,227.007,570.487   z"></path>
            <path d="M265.488,209.382h7.261c11.045,0,20-8.954,20-20s-8.955-20-20-20h-7.261c-11.046,0-20,8.954-20,20   S254.442,209.382,265.488,209.382z"></path>
            <path d="M328.081,209.382h238.607c11.046,0,20-8.954,20-20s-8.954-20-20-20H328.081c-11.045,0-20,8.954-20,20   S317.036,209.382,328.081,209.382z"></path>
            <path d="M114.889,278.979h7.26c11.046,0,20-8.954,20-20s-8.954-20-20-20h-7.26c-11.045,0-20,8.954-20,20   S103.844,278.979,114.889,278.979z"></path>
            <path d="M177.482,278.979h238.606c11.046,0,20-8.954,20-20s-8.954-20-20-20H177.482c-11.046,0-20,8.954-20,20   S166.437,278.979,177.482,278.979z"></path>
        </g>
    </g>
    <g id="SvgjsG2412" featurekey="text1" fill="#130f11" transform="matrix(3.8071067740712157,0,0,3.8071067740712157,93.59390809035968,-22.284274593588584)">
        <path d="M1.42 10.78 l2.42 -0.4 l0 3.16 l3.72 0 l0 2.02 l-3.72 0 l0 4.26 q0 1.26 0.4 1.8 t1.36 0.54 q0.66 0 1.17 -0.14 t0.81 -0.26 l0.4 1.92 q-0.42 0.18 -1.1 0.37 t-1.6 0.19 q-1.12 0 -1.87 -0.3 t-1.19 -0.87 t-0.62 -1.38 t-0.18 -1.85 l0 -9.06 z M14.995 15.72 q-0.3 -0.1 -0.83 -0.21 t-1.23 -0.11 q-0.4 0 -0.85 0.08 t-0.63 0.14 l0 8.38 l-2.42 0 l0 -9.96 q0.7 -0.26 1.75 -0.49 t2.33 -0.23 q0.24 0 0.56 0.03 t0.64 0.08 t0.62 0.12 t0.48 0.13 z M19.91 22.3 q1.12 0 1.7 -0.12 l0 -2.68 q-0.2 -0.06 -0.58 -0.12 t-0.84 -0.06 q-0.4 0 -0.81 0.06 t-0.74 0.22 t-0.53 0.45 t-0.2 0.73 q0 0.86 0.54 1.19 t1.46 0.33 z M19.71 13.28 q1.2 0 2.02 0.3 t1.31 0.84 t0.7 1.31 t0.21 1.69 l0 6.34 q-0.56 0.12 -1.69 0.29 t-2.55 0.17 q-0.94 0 -1.72 -0.18 t-1.33 -0.58 t-0.86 -1.04 t-0.31 -1.58 q0 -0.9 0.35 -1.52 t0.95 -1.01 t1.39 -0.56 t1.65 -0.17 q0.4 0 0.84 0.05 t0.94 0.17 l0 -0.4 q0 -0.42 -0.1 -0.8 t-0.35 -0.67 t-0.66 -0.45 t-1.03 -0.16 q-0.84 0 -1.54 0.12 t-1.14 0.28 l-0.3 -1.96 q0.46 -0.16 1.34 -0.32 t1.88 -0.16 z M28.485 24 l-2.42 0 l0 -10.46 l2.42 0 l0 10.46 z M28.744999999999997 10.48 q0 0.68 -0.44 1.08 t-1.04 0.4 q-0.62 0 -1.06 -0.4 t-0.44 -1.08 q0 -0.7 0.44 -1.1 t1.06 -0.4 q0.6 0 1.04 0.4 t0.44 1.1 z M30.7 13.88 q0.7 -0.2 1.82 -0.38 t2.48 -0.18 q1.28 0 2.14 0.35 t1.37 0.98 t0.72 1.52 t0.21 1.95 l0 5.88 l-2.42 0 l0 -5.5 q0 -0.84 -0.11 -1.43 t-0.36 -0.96 t-0.68 -0.54 t-1.05 -0.17 q-0.46 0 -0.96 0.06 t-0.74 0.1 l0 8.44 l-2.42 0 l0 -10.12 z M47.775000000000006 17.42 q-0.46 1.76 -0.99 3.43 t-1.05 3.15 l-1.98 0 q-0.4 -0.92 -0.84 -2.1 t-0.88 -2.52 t-0.88 -2.82 t-0.86 -3.02 l2.56 0 q0.18 0.84 0.42 1.81 t0.5 1.98 t0.54 1.97 t0.56 1.76 q0.3 -0.92 0.59 -1.9 t0.55 -1.96 t0.49 -1.91 t0.41 -1.75 l1.86 0 q0.18 0.82 0.4 1.75 t0.47 1.91 t0.54 1.96 t0.59 1.9 q0.26 -0.8 0.54 -1.76 t0.55 -1.97 t0.51 -1.98 t0.42 -1.81 l2.5 0 q-0.42 1.54 -0.86 3.02 t-0.88 2.82 t-0.88 2.52 t-0.86 2.1 l-1.96 0 q-0.52 -1.48 -1.07 -3.15 t-1.01 -3.43 z M59.95 22.3 q1.12 0 1.7 -0.12 l0 -2.68 q-0.2 -0.06 -0.58 -0.12 t-0.84 -0.06 q-0.4 0 -0.81 0.06 t-0.74 0.22 t-0.53 0.45 t-0.2 0.73 q0 0.86 0.54 1.19 t1.46 0.33 z M59.75 13.28 q1.2 0 2.02 0.3 t1.31 0.84 t0.7 1.31 t0.21 1.69 l0 6.34 q-0.56 0.12 -1.69 0.29 t-2.55 0.17 q-0.94 0 -1.72 -0.18 t-1.33 -0.58 t-0.86 -1.04 t-0.31 -1.58 q0 -0.9 0.35 -1.52 t0.95 -1.01 t1.39 -0.56 t1.65 -0.17 q0.4 0 0.84 0.05 t0.94 0.17 l0 -0.4 q0 -0.42 -0.1 -0.8 t-0.35 -0.67 t-0.66 -0.45 t-1.03 -0.16 q-0.84 0 -1.54 0.12 t-1.14 0.28 l-0.3 -1.96 q0.46 -0.16 1.34 -0.32 t1.88 -0.16 z M69.725 24.2 q-1.08 -0.02 -1.79 -0.24 t-1.13 -0.63 t-0.59 -1.02 t-0.17 -1.39 l0 -12.04 l2.42 -0.4 l0 11.98 q0 0.44 0.07 0.74 t0.25 0.51 t0.49 0.32 t0.79 0.17 z M74.80000000000001 24.2 q-1.08 -0.02 -1.79 -0.24 t-1.13 -0.63 t-0.59 -1.02 t-0.17 -1.39 l0 -12.04 l2.42 -0.4 l0 11.98 q0 0.44 0.07 0.74 t0.25 0.51 t0.49 0.32 t0.79 0.17 z"></path>
    </g>
</svg>