<?xml version="1.0" standalone="no"?>
<!DOCTYPE svg PUBLIC "-//W3C//DTD SVG 20010904//EN"
 "http://www.w3.org/TR/2001/REC-SVG-20010904/DTD/svg10.dtd">
<svg version="1.0" xmlns="http://www.w3.org/2000/svg"
 width="700.000000pt" height="700.000000pt" viewBox="0 0 700.000000 700.000000"
 preserveAspectRatio="xMidYMid meet">
<metadata>
Created by potrace 1.11, written by Peter Selinger 2001-2013
</metadata>
<g transform="translate(0.000000,700.000000) scale(0.100000,-0.100000)"
fill="#000000" stroke="none">
<path d="M2730 5519 c-61 -11 -88 -27 -114 -66 -67 -101 -17 -225 100 -251 67
-14 149 -1 188 29 75 59 81 174 14 246 -35 38 -115 56 -188 42z"/>
<path d="M3235 5518 c-45 -6 -120 -52 -120 -74 0 -5 -4 -15 -9 -22 -25 -39
-10 -124 30 -171 48 -57 25 -56 1105 -55 1103 1 1029 -4 1083 66 64 85 26 217
-73 249 -40 13 -1927 20 -2016 7z"/>
<path d="M1486 4952 c-31 -7 -74 -36 -98 -67 -33 -42 -33 -137 1 -184 58 -81
222 -96 299 -27 82 73 66 212 -29 261 -29 15 -136 26 -173 17z"/>
<path d="M1989 4949 c-149 -39 -160 -246 -16 -307 20 -9 286 -12 1028 -12
1097 0 1033 -4 1093 59 28 29 44 106 33 154 -8 29 -53 80 -87 98 -20 11 -210
14 -1025 14 -551 1 -1012 -2 -1026 -6z"/>
<path d="M875 4374 c-44 -23 -66 -45 -81 -81 -39 -92 10 -195 106 -220 20 -5
393 -9 858 -8 452 0 823 -2 823 -5 5 -24 3 -1449 -2 -1460 -6 -13 -64 -15
-441 -14 -238 1 -438 2 -443 3 -7 1 -10 131 -10 378 0 270 -3 387 -12 412 -26
76 -118 125 -193 102 -52 -15 -106 -69 -114 -114 -4 -20 -7 -203 -7 -409 l0
-373 -232 0 c-221 -1 -234 -2 -268 -22 -98 -61 -105 -199 -13 -269 l37 -29
476 -3 476 -3 -1 -42 c-1 -23 5 -59 12 -79 12 -34 11 -38 -4 -39 -9 0 -226 -1
-482 -2 -419 -2 -468 -4 -497 -19 -102 -56 -110 -203 -15 -276 l35 -27 2957 0
2957 0 36 28 c46 35 67 74 67 127 0 71 -50 143 -110 159 -8 2 -134 5 -280 6
-146 2 -275 4 -287 4 -21 1 -22 2 -8 41 16 46 15 39 15 84 l0 35 283 3 284 3
36 28 c77 58 81 98 37 314 -118 575 -307 1086 -511 1383 -58 86 -228 270 -249
270 -5 0 -15 6 -22 14 -18 18 -107 63 -178 90 l-55 21 -2475 3 c-2233 2 -2478
0 -2505 -14z m4156 -321 c1 -17 1 -1428 0 -1450 -1 -17 -28 -18 -439 -17 -240
1 -442 2 -447 3 -7 1 -10 121 -10 364 0 199 -3 379 -6 401 -23 136 -209 178
-290 65 l-24 -34 -5 -400 -5 -399 -445 0 -445 0 -3 739 -2 740 1060 0 c841 0
1060 -3 1061 -12z m810 -15 c64 -29 84 -44 152 -112 51 -52 116 -140 161 -219
l27 -47 -411 0 -410 1 -1 35 c0 18 0 102 0 184 0 83 0 158 0 168 1 17 15 18
214 17 205 -2 215 -3 268 -27z m489 -718 c27 -42 139 -414 175 -580 2 -8 10
-44 20 -79 9 -35 13 -66 10 -69 -3 -4 -269 -6 -590 -7 l-585 0 -1 40 c0 45 0
684 1 700 0 7 162 10 480 10 416 0 482 -2 490 -15z m-3272 -1103 c1 -23 6 -58
12 -77 5 -19 10 -37 10 -40 0 -7 -659 -4 -666 3 -3 3 -1 14 5 25 6 11 12 45
13 76 l3 56 311 0 311 0 1 -43z m1223 36 c0 -5 2 -28 3 -53 2 -25 9 -57 15
-72 6 -16 8 -28 6 -29 -3 0 -152 -1 -332 -1 -364 -1 -335 -7 -320 62 3 14 6
42 6 63 l1 37 310 0 c171 0 310 -3 311 -7z m1347 -48 c1 -30 6 -64 12 -76 7
-11 9 -23 6 -26 -7 -8 -774 -8 -781 -1 -3 2 -1 18 5 34 6 16 12 49 14 74 2 25
4 46 5 48 1 1 167 2 369 2 l368 0 2 -55z"/>
</g>
</svg>
